<?xml version="1.0" encoding="iso-8859-1"?>
<svg version="1.1" xmlns="http://www.w3.org/2000/svg" x="0px" y="0px"
	 viewBox="0 0 128 128" style="enable-background:new 0 0 128 128;" xml:space="preserve">
	<path style="fill:#303030;" d="M63.057,80.284c-3.205,5.396-6.409,9.538-9.614,12.424c-6.032,5.459-13.007,8.189-20.925,8.189
		c-9.614,0-17.437-3.42-23.47-10.259C3.016,83.798,0,74.919,0,64.001C0,53.899,2.891,45.24,8.672,38.024S22.276,27.2,32.141,27.2
		c6.347,0,12.047,1.914,17.109,5.741c5.055,3.828,9.722,9.946,13.995,18.354c4.147-7.53,8.137-12.989,11.971-16.377
		c5.781-5.271,12.787-7.906,21.019-7.906c9.991,0,17.783,3.72,23.376,11.152C125.204,45.602,128,54.119,128,63.719
		c0,9.851-2.751,18.511-8.246,25.978c-5.502,7.467-13.15,11.2-22.953,11.2c-7.603,0-14.076-2.416-19.417-7.247
		c-4.776-4.141-8.892-9.726-12.348-16.754L63.057,80.284z M20.265,81.002c3.645,3.727,7.76,5.588,12.348,5.588
		c5.781,0,11.185-3.427,16.212-10.284s7.541-11.35,7.541-13.48c0-1.44-2.719-5.257-8.155-11.455
		c-5.435-6.202-10.916-9.301-16.446-9.301c-4.776,0-8.797,2.067-12.065,6.198c-3.268,4.134-4.901,9.642-4.901,16.531
		C14.798,71.876,16.621,77.276,20.265,81.002z M108.723,48.471c-3.295-4.079-7.837-6.118-13.618-6.118
		c-5.781,0-10.965,3.075-15.552,9.224c-4.587,6.149-6.881,10.196-6.881,12.142c0,2.071,2.339,6.355,7.02,12.846
		c4.681,6.498,9.852,9.743,15.507,9.743s10.148-2.133,13.479-6.4c3.33-4.267,4.996-9.663,4.996-16.189
		C113.673,57.632,112.025,52.55,108.723,48.471z"/>
</svg>
